<?xml version="2.0" encoding="UTF-8"?>
<svg version="2.2" viewBox="0 0 120 60" width="120" height="61" preserveAspectRatio="xMidYMid meet" xml:space="preserve" xmlns="http://www.w3.org/2000/svg">
<style type="text/css">
	.st0{fill:#951636;}
</style>
<g transform="matrix(2.0109 0 0 2.0109 -.70519 -.55152)" fill="#951636">
	<path class="st0" d="m119.2 10.3c-19.5-6.2-38.8-9.3-59.2-9.3-20.5 0-39.7 3.2-59 9.2-0.3 0.4-0.7 2 0.6 2.4l3.2 0.9s1.7 0.5 0.3 2.5l-2.7 2.1s-2.5 2.2 0.3 2.5l3.3 0.9s1.7 0.5 0.3 2.5l-2.7 2s-2.5 2.2 0.3 2.5l3.2 2.1s1.7 0.5 0.3 2.6l-2.6 2.9s-2.5 2.2 0.3 2.5l3.2 0.9s1.7 0.5 0.3 2.5l-2.6 2s-2.5 2.2 0.3 2.5l3.2 0.9s1.7 0.5 0.3 2.5l-2.7 2s-2.5 2.2 0.3 2.5l3.3 0.9s1.7 0.5 0.3 2.5l-2.6 2s-2.5 2.2 0.3 2.5l3.2 0.9s1.7 0.5 0.3 2.5l-2.8 2.3s-2.5 2.2 0.3 2.5l3.2 0.9s1.7 0.5 0.3 2.5l-2.4 2.3s-2.4 2.2 0.2 2.5c16.3-3.6 32.2-5.5 49.2-5.5s32.8 2.8 49.2 5.7c1.7-0.5 0.3-2.5 0.3-2.5l-2.7-2c-2.5-2.2 0.3-2.5 0.3-2.5l3.2-1c1.7-0.5 0.3-2.5 0.3-2.5l-2.6-2.9c-2.5-2.2 0.3-2.5 0.3-2.5l3.2-0.9c1.7-0.5 0.3-2.5 0.3-2.5l-2.6-2c-2.5-2.2 0.3-2.5 0.3-2.5l3.3-0.9c1.7-0.5 0.3-2.5 0.3-2.5l-2.7-2c-2.5-2.2 0.3-2.5 0.3-2.5l3.2-0.9c1.7-0.5 0.3-2.5 0.3-2.5l-2.6-2c-2.5-2.2 0.3-2.5 0.3-2.5l3.2-0.9c1.7-0.5 0.3-2.5 0.3-2.5l-2.6-2.9c-2.5-2.2 0.3-2.6 0.3-2.6l3.2-0.9c1.7-0.5 0.3-2.5 0.3-2.5l-2.7-2c-2.5-2.2 0.3-2.5 0.3-2.5l3.3-0.9c1.7-0.5 0.3-2.5 0.3-2.5l-2.7-2c-2.5-2.2 0.3-2.5 0.3-2.5l3.2-0.9c1-2.4 0.9-2 0.6-2.4zm-18.7 42.7-0.6-0.1c-12.6-2.9-25.2-4.2-40-4.3-14.6 0-27.3 2.4-40 4.3l-0.5 0.2-7.8-39.3 0.5-0.2c15.7-4.8 31.3-7.2 47.9-7.2 16.7 0 32.4 2.4 48 7.3l0.5 0.2z"/>
	<path class="st0" d="m67 31.3c-2.9 0-5.2 2.3-5.2 5.2 0 2.5 0.5 2.8 2.5 3.8s2.3 2.5 3.6 2.5c2.9 0 5.2-2.3 5.2-5.2 0.2-3-2.2-5.3-5.2-5.3z"/>
	<path class="st0" d="m83.8 42c1.4-0.7 2.2-2 2.4-3.7 0.2-2.6-0.3-3.2-2.4-4.2-0.8-0.8-2.8-2.3-3.6-2.5l-2-0.2-2.2 9.8 2 0.1c1.6 0.2 2.7 0.2 3.8-0.4z"/>
	<path class="st0" d="m51.2 18.6c0 2.5 0.5 2.8 2.5 3.8s2.3 2.5 3.6 2.5c2.9 0 5.2-2.3 5.2-5.2s-2.2-5.2-5.2-5.2c-2.9-0.2-5.2 2.2-5.2 5.1z"/>
	<path class="st0" d="m49.8 31.4c-2.9 0-5.2 2.3-5.2 5.2 0 2.5 0.5 2.8 2.5 3.8s2.3 2.5 3.6 2.5c2.9 0 5.2-2.3 5.2-5.2 0.2-3.2-2.2-5.3-5.2-5.3z"/>
	<path class="st0" d="m12.9 14.5 7.5 37.1c12.5-2.8 25.2-4.2 39.6-4.2 14.5 0 27.2 2.4 39.6 4.1l7.5-37.1c-15.3-4.7-30.7-7.2-47-7.2-16.5 0-31.9 2.4-47.2 7.1zm17.4 9.9 2-0.9c0.3 0.8 0.4 2.2 0.7 2.5 0.5 0.6 2.4 0.9 2.2 0.7 2.3-0.3 2-2.4 2.8-2.7-0.2-0.8-0.6-2.3-2.3-2.6-0.5-0.2-0.5-0.2-2.5-0.7-2-0.4-3.2-2.4-3.5-2.9-0.4-2 2.2-4 3.4-4.4 2.6-0.3 2.9 0.2 4.2 2.5l-2.5 2.4c-0.9-0.9-2.4-2.2-2.3-2-2.2 0.2-2.8 2.2-2.6 2 0.2 0.5 0.4 0.8 0.9 1s0.5 0.2 2.4 0.6c2.4 0.5 3.6 2.5 4 3.4 0.5 2.5-2.2 4.7-3.6 5.2-2.5 0.3-2.9-0.2-4-2.2-0.6-0.4-0.8-0.9-2.2-2.9zm6.4 20.2-2 0.4-2.6-13.5 6.9-2.4 0.4 2.9-4.7 0.9 0.7 3.3 4.5-0.9 0.4 2.9-4.5 0.9zm2.3-29.5-0.2-2.9 8.4-2.2 0.2 2.9-3.2 0.4 2.5 11.8-2.2 0.3-2.5-11.8zm10.7 28.7c-2 0-4.2-2-5.4-2.4-2.2-2.3-2.7-2.9-2.7-4.8 0-3.9 3.3-7.2 7.4-7.2 4 0 7.3 3.3 7.3 7.2-0.2 4-3.4 7.2-7.6 7.2zm17.2-0.1c-2 0-4.2-2-5.4-2.4-2.2-2.3-2.7-2.9-2.7-4.8 0-3.9 3.3-7.2 7.4-7.2 4 0 7.3 3.3 7.3 7.2-0.2 4-3.5 7.2-7.6 7.2zm14.2-30.6 2.2 0.3-0.8 5.4 6.2-4.7 2.8 0.5-7.2 5.3 5.2 8.3-2.8-0.4-4.2-6.8-0.5 0.4-0.7 5.6-2.2-0.3zm0.4 17.5c2.4 0.3 3.7 0.9 4.9 2 2.5 2.5 2.2 3.6 2.9 5.9s-2.5 4.2-3.5 5.1c-2.5 0.8-2.8 2-5.2 0.7l-2.8-0.3 2.8-13.7zm-15.6-11.9c0.3-4 3.8-7 7.8-6.8 2.4 0.2 2.3 0.5 3.6 2.3l-0.2 2.4c-2.3-2.2-2.2-2.6-3.7-2.7-2.8-0.2-5.2 2.9-5.4 4.9-0.2 2.9 2.9 5.3 4.7 5.5 2.4 0.2 2.4-0.3 3.9-2.4l-0.2 2.5c-2.3 0.6-2.5 0.9-3.9 0.8-3.9-0.2-6.8-3.7-6.6-7.5zm-2.3 0c0 4-3.3 7.2-7.4 7.2-2 0-4.2-2-5.4-2.4-2.2-2.3-2.7-2.9-2.7-4.8 0-3.9 3.3-7.2 7.4-7.2 3.9-0.2 7.2 3.2 7.2 7.2z"/>
</g>
</svg>
